<?xml version="1.0" encoding="utf-8"?>
<svg version="1.1" xmlns:xlink="http://www.w3.org/1999/xlink" width="300px" height="170px" xmlns="http://www.w3.org/2000/svg">
  <g transform="matrix(1 0 0 1 -52 -64 )">
    <path d="M 52 64  L 352 64  L 352 234  L 52 234  L 52 64  " fill-rule="nonzero" fill="#cccccc" stroke="none" />
    <path d="M 64 76  L 340 76  L 340 222  L 64 222  L 64 76  " fill-rule="nonzero" fill="#ffffff" stroke="none" />
    <path d="M 220.75 115  C 213.61 115  208 109.39  208 102.25  C 208 95.11  213.61 89.5  220.75 89.5  C 227.89 89.5  233.5 95.11  233.5 102.25  C 233.5 109.39  227.89 115  220.75 115  " fill-rule="nonzero" fill="#cccccc" stroke="none" />
    <path d="M 69 218  L 69 142.65  L 135.75 108.4  L 229.2 171.42  L 282.6 128.95  L 336 171.42  L 336 218  L 69 218  " fill-rule="nonzero" fill="#169bd5" stroke="none" />
  </g>
</svg>