<?xml version="1.0" encoding="utf-8"?>
<svg version="1.1" xmlns:xlink="http://www.w3.org/1999/xlink" width="176px" height="160px" xmlns="http://www.w3.org/2000/svg">
  <g transform="matrix(1 0 0 1 -91 -101 )">
    <path d="M 91 101  L 267 101  L 267 261  L 91 261  L 91 101  " fill-rule="nonzero" fill="#cccccc" stroke="none" />
    <path d="M 102 112  L 256 112  L 256 250  L 102 250  L 102 112  " fill-rule="nonzero" fill="#ffffff" stroke="none" />
    <path d="M 194.52 149  C 187.8 149  182.52 143.72  182.52 137  C 182.52 130.28  187.8 125  194.52 125  C 201.24 125  206.52 130.28  206.52 137  C 206.52 143.72  201.24 149  194.52 149  " fill-rule="nonzero" fill="#cccccc" stroke="none" />
    <path d="M 106 246  L 106 174.5  L 142.5 142  L 193.6 175.090909090909  L 222.8 161.5  L 252 175.090909090909  L 252 246  L 106 246  " fill-rule="nonzero" fill="#169bd5" stroke="none" />
  </g>
</svg>