<?xml version="1.0" encoding="utf-8"?>
<svg version="1.1" xmlns:xlink="http://www.w3.org/1999/xlink" width="179px" height="170px" xmlns="http://www.w3.org/2000/svg">
  <g transform="matrix(1 0 0 1 -179 -1549 )">
    <path d="M 179 1549  L 358 1549  L 358 1719  L 179 1719  L 179 1549  " fill-rule="nonzero" fill="#cccccc" stroke="none" />
    <path d="M 191 1561  L 346 1561  L 346 1707  L 191 1707  L 191 1561  " fill-rule="nonzero" fill="#ffffff" stroke="none" />
    <path d="M 284.83 1600  C 277.69 1600  272.08 1594.39  272.08 1587.25  C 272.08 1580.11  277.69 1574.5  284.83 1574.5  C 291.97 1574.5  297.58 1580.11  297.58 1587.25  C 297.58 1594.39  291.97 1600  284.83 1600  " fill-rule="nonzero" fill="#cccccc" stroke="none" />
    <path d="M 196 1703  L 196 1627.65  L 232.5 1593.4  L 283.6 1624.93296089385  L 312.8 1613.95  L 342 1624.93296089385  L 342 1703  L 196 1703  " fill-rule="nonzero" fill="#169bd5" stroke="none" />
  </g>
</svg>