<?xml version="1.0" encoding="utf-8"?>
<svg version="1.1" xmlns:xlink="http://www.w3.org/1999/xlink" width="171px" height="127px" xmlns="http://www.w3.org/2000/svg">
  <g transform="matrix(1 0 0 1 -117 -426 )">
    <path d="M 117 426  L 288 426  L 288 553  L 117 553  L 117 426  " fill-rule="nonzero" fill="#cccccc" stroke="none" />
    <path d="M 126 435  L 279 435  L 279 544  L 126 544  L 126 435  " fill-rule="nonzero" fill="#ffffff" stroke="none" />
    <path d="M 215.445 464.1  C 210.111 464.1  205.92 459.909  205.92 454.575  C 205.92 449.241  210.111 445.05  215.445 445.05  C 220.779 445.05  224.97 449.241  224.97 454.575  C 224.97 459.909  220.779 464.1  215.445 464.1  " fill-rule="nonzero" fill="#cccccc" stroke="none" />
    <path d="M 129 541  L 129 484.35  L 165.75 458.6  L 217.2 495.101754385965  L 246.6 474.05  L 276 495.101754385965  L 276 541  L 129 541  " fill-rule="nonzero" fill="#169bd5" stroke="none" />
  </g>
</svg>