<?xml version="1.0" encoding="utf-8"?>
<svg version="1.1" xmlns:xlink="http://www.w3.org/1999/xlink" width="300px" height="301px" xmlns="http://www.w3.org/2000/svg">
  <g transform="matrix(1 0 0 1 -51 -490 )">
    <path d="M 51 490  L 351 490  L 351 791  L 51 791  L 51 490  " fill-rule="nonzero" fill="#cccccc" stroke="none" />
    <path d="M 72 511  L 330 511  L 330 770  L 72 770  L 72 511  " fill-rule="nonzero" fill="#ffffff" stroke="none" />
    <path d="M 229.5 580.15  C 216.9 580.15  207 570.25  207 557.65  C 207 545.05  216.9 535.15  229.5 535.15  C 242.1 535.15  252 545.05  252 557.65  C 252 570.25  242.1 580.15  229.5 580.15  " fill-rule="nonzero" fill="#cccccc" stroke="none" />
    <path d="M 80 763  L 80 628.8  L 140.75 567.8  L 225.8 616.6  L 274.4 604.4  L 323 616.6  L 323 763  L 80 763  " fill-rule="nonzero" fill="#169bd5" stroke="none" />
  </g>
</svg>